<svg width="245" height="114" viewBox="0 0 245 114" fill="none" xmlns="http://www.w3.org/2000/svg">
<path d="M23.45 9.84H13.61V0H9.83V9.84H0V13.61H9.83V23.45H13.61V13.61H23.45V9.84Z" fill="#0000FF"/>
<path d="M30.46 23.45V0H40.59C45.04 0 47.9 3.35 47.9 7.56C47.9 11.77 45.04 14.83 40.59 14.83H34.2299V23.45H30.45H30.46ZM40.03 11.76C43.1 11.76 44.58 9.96 44.58 7.49C44.58 5.02 43.1 3.15 40.03 3.15H34.24V11.77H40.03V11.76Z" fill="black"/>
<path d="M69.6199 23.45V5.65L63.94 23.45H60.16L54.51 5.69V23.45H50.9799V0H56.56L62.14 18.68L67.71 0H73.1499V23.45H69.6199Z" fill="black"/>
<path d="M94.0099 23.45L92.21 18.19H82.29L80.35 23.45H76.36L85.1499 0H89.46L98.11 23.45H94.0099ZM87.2299 4.13L83.31 15.08H91.11L87.2299 4.13Z" fill="black"/>
<path d="M116.43 23.45L110.85 14.52L105.06 23.45H100.65L108.63 11.48L101.07 0H105.52L110.85 8.51L116.18 0H120.56L113 11.33L121.01 23.44H116.42L116.43 23.45Z" fill="black"/>
<path d="M34.23 52.6802H30.45V29.2302H46.73V32.4102H34.23V39.1502H45.32V42.3602H34.23V52.6802Z" fill="black"/>
<path d="M48.6 41.1702C48.6 33.2302 52.59 28.4602 59.62 28.4602C66.65 28.4602 70.53 33.2302 70.53 41.2802C70.53 49.3302 66.57 53.5002 59.65 53.5002C52.7299 53.5002 48.6 49.0902 48.6 41.1802V41.1702ZM66.7899 41.1402C66.7899 35.2102 64.25 31.8202 59.59 31.8202C54.93 31.8202 52.35 35.2102 52.35 41.2102C52.35 47.2102 55.03 50.2802 59.52 50.2802C64.01 50.2802 66.7899 47.4902 66.7899 41.1402Z" fill="black"/>
<path d="M94.2499 44.6302C93.2299 50.0702 89.6599 53.4902 84.2899 53.4902C78.3899 53.4902 73.7999 49.3202 73.7999 41.1302C73.7999 33.3602 77.93 28.4502 84.46 28.4502C90.18 28.4502 93.78 32.1902 94.24 36.9202H90.46C90.14 33.7102 87.81 31.7302 84.46 31.7302C79.98 31.7302 77.6499 35.2602 77.6499 41.0502C77.6499 46.8402 80.0499 50.2002 84.3899 50.2002C87.9599 50.2002 89.97 48.0102 90.46 44.6202H94.24L94.2499 44.6302Z" fill="black"/>
<path d="M111.9 29.2402H115.75V44.8802C115.75 50.5602 112.29 53.5002 106.39 53.5002C100.49 53.5002 97.3199 50.8202 97.3199 45.1702V29.2502H101.17V44.8602C101.17 48.3602 102.97 50.4002 106.54 50.4002C109.89 50.4002 111.91 48.5602 111.91 44.8902V29.2502L111.9 29.2402Z" fill="black"/>
<path d="M133.65 36.1602C133.51 33.1602 131.71 31.6802 128.11 31.6802C124.72 31.6802 123.06 32.9902 123.06 35.2102C123.06 36.8702 123.98 37.6802 125.35 38.2802C127.82 39.3402 130.58 39.2702 133.26 40.1902C135.84 41.0702 137.85 42.7302 137.85 46.2602C137.85 50.9202 134.39 53.5002 128.74 53.5002C123.09 53.5002 119.14 50.9602 119.03 45.6602H122.67C122.74 48.7302 125.14 50.4602 128.74 50.4602C132.13 50.4602 134.18 48.9402 134.18 46.3602C134.18 44.8802 133.51 43.8502 131.71 43.1502C129.49 42.2702 126.73 42.3002 123.98 41.2802C120.98 40.1502 119.6 38.3502 119.6 35.4502C119.6 31.3502 122.39 28.4602 128 28.4602C133.61 28.4602 137.15 31.4602 137.22 36.1602H133.65Z" fill="black"/>
<path d="M141.13 52.6902V29.2402H157.94V32.4202H144.81V38.8102H156.99V41.9902H144.81V49.4802H158.51V52.6902H141.13Z" fill="black"/>
<path d="M161.57 52.6902V29.2402H170.43C176.61 29.2402 181.02 33.5102 181.02 40.8602C181.02 47.7802 177.07 52.6902 171.13 52.6902H161.56H161.57ZM170.4 49.6102C174.92 49.6102 177.18 46.4002 177.18 40.7502C177.18 35.1002 174.85 32.3802 169.94 32.3802H165.24V49.6102H170.4Z" fill="black"/>
<path d="M30.45 82.72V59.27H47.26V62.45H34.13V68.84H46.3099V72.02H34.13V79.51H47.83V82.72H30.45Z" fill="black"/>
<path d="M66.0099 82.72L60.43 73.79L54.64 82.72H50.23L58.21 70.75L50.65 59.27H55.1L60.43 67.78L65.7599 59.27H70.1399L62.5799 70.6L70.6 82.71H66.0099V82.72Z" fill="black"/>
<path d="M90.7899 82.72L88.99 77.46H79.0699L77.13 82.72H73.1399L81.9299 59.27H86.24L94.8899 82.72H90.7899ZM84.0099 63.41L80.09 74.36H87.8899L84.0099 63.41Z" fill="black"/>
<path d="M116.74 82.72V64.92L111.06 82.72H107.28L101.63 64.96V82.72H98.1V59.27H103.68L109.26 77.95L114.84 59.27H120.28V82.72H116.74Z" fill="black"/>
<path d="M124.19 82.72V59.27H127.97V82.72H124.19Z" fill="black"/>
<path d="M146.93 82.72L135.31 65.17V82.72H131.78V59.27H135.81L146.9 76.32V59.27H150.43V82.72H146.93Z" fill="black"/>
<path d="M171.21 82.72L169.41 77.46H159.49L157.55 82.72H153.56L162.35 59.27H166.66L175.31 82.72H171.21ZM164.44 63.41L160.52 74.36H168.32L164.44 63.41Z" fill="black"/>
<path d="M178.88 82.72V62.45H171.46V59.27H190.07V62.45H182.66V82.72H178.88Z" fill="black"/>
<path d="M193.31 82.72V59.27H197.09V82.72H193.31Z" fill="black"/>
<path d="M200.62 71.21C200.62 63.27 204.61 58.5 211.64 58.5C218.67 58.5 222.55 63.27 222.55 71.32C222.55 79.37 218.59 83.54 211.67 83.54C204.75 83.54 200.62 79.13 200.62 71.22V71.21ZM218.8 71.18C218.8 65.25 216.26 61.86 211.6 61.86C206.94 61.86 204.36 65.25 204.36 71.25C204.36 77.25 207.04 80.32 211.53 80.32C216.02 80.32 218.8 77.53 218.8 71.18Z" fill="black"/>
<path d="M241.26 82.72L229.64 65.17V82.72H226.11V59.27H230.14L241.23 76.32V59.27H244.76V82.72H241.26Z" fill="black"/>
<path d="M30.46 112.76V89.31H39.32C45.4999 89.31 49.91 93.58 49.91 100.93C49.91 107.85 45.96 112.76 40.02 112.76H30.45H30.46ZM39.29 109.69C43.81 109.69 46.07 106.48 46.07 100.83C46.07 95.18 43.74 92.46 38.83 92.46H34.13V109.69H39.29Z" fill="black"/>
<path d="M67.89 112.76L66.09 107.5H56.17L54.2299 112.76H50.24L59.03 89.31H63.34L71.99 112.76H67.89ZM61.11 93.45L57.19 104.4H64.99L61.11 93.45Z" fill="black"/>
<path d="M88.1199 96.24C87.9799 93.24 86.1799 91.76 82.5799 91.76C79.1899 91.76 77.53 93.07 77.53 95.29C77.53 96.95 78.4499 97.76 79.8299 98.36C82.2999 99.42 85.06 99.35 87.74 100.27C90.32 101.15 92.3299 102.81 92.3299 106.34C92.3299 111 88.87 113.58 83.22 113.58C77.57 113.58 73.6199 111.04 73.5099 105.74H77.1499C77.2199 108.81 79.62 110.54 83.22 110.54C86.61 110.54 88.66 109.02 88.66 106.44C88.66 104.96 87.9899 103.93 86.1899 103.23C83.9699 102.35 81.21 102.38 78.46 101.36C75.46 100.23 74.0799 98.43 74.0799 95.53C74.0799 91.43 76.8699 88.54 82.4799 88.54C88.09 88.54 91.63 91.54 91.7 96.24H88.1199Z" fill="black"/>
<path d="M110.33 112.76V101.78H99.38V112.76H95.6V89.31H99.38V98.6H110.33V89.31H114.14V112.76H110.33Z" fill="black"/>
<path d="M117.95 112.76V89.31H129.04C133.63 89.31 135.93 91.85 135.93 95.28C135.93 98.14 134.31 99.59 132.65 100.08C134.56 100.64 136.64 102.16 136.64 105.87C136.64 110.14 133.85 112.75 128.1 112.75H117.97L117.95 112.76ZM121.59 92.46V98.85H128.69C131.06 98.85 132.29 97.72 132.29 95.6C132.29 93.48 131.16 92.46 128.37 92.46H121.59ZM128.37 109.69C131.37 109.69 132.96 108.03 132.96 105.56C132.96 103.09 131.3 101.92 128.76 101.92H121.59V109.69H128.37Z" fill="black"/>
<path d="M139.38 101.25C139.38 93.31 143.37 88.54 150.4 88.54C157.43 88.54 161.31 93.31 161.31 101.36C161.31 109.41 157.35 113.58 150.43 113.58C143.51 113.58 139.38 109.17 139.38 101.26V101.25ZM157.56 101.22C157.56 95.29 155.02 91.9 150.36 91.9C145.7 91.9 143.12 95.29 143.12 101.29C143.12 107.29 145.8 110.36 150.29 110.36C154.78 110.36 157.56 107.57 157.56 101.22Z" fill="black"/>
<path d="M179.24 112.76L177.44 107.5H167.52L165.58 112.76H161.59L170.38 89.31H174.69L183.34 112.76H179.24ZM172.46 93.45L168.54 104.4H176.34L172.46 93.45Z" fill="black"/>
<path d="M200.88 112.76V106.69C200.88 104.25 199.96 103.12 196.61 103.12H190.22V112.76H186.55V89.31H198.13C202.4 89.31 205.16 92.1 205.16 95.88C205.16 98.67 203.68 100.86 201.1 101.53C203.61 102.06 204.56 103.37 204.56 106.23V112.76H200.88ZM197.28 100.05C200.42 100.05 201.62 98.35 201.62 96.24C201.62 93.98 200.31 92.46 197.52 92.46H190.21V100.05H197.28Z" fill="black"/>
<path d="M208.58 112.76V89.31H217.44C223.62 89.31 228.03 93.58 228.03 100.93C228.03 107.85 224.08 112.76 218.14 112.76H208.57H208.58ZM217.4 109.69C221.92 109.69 224.18 106.48 224.18 100.83C224.18 95.18 221.85 92.46 216.94 92.46H212.24V109.69H217.4Z" fill="black"/>
</svg>
